<svg width="22" height="21" viewBox="0 0 22 21" fill="none" xmlns="http://www.w3.org/2000/svg">
<path d="M17.8335 6.33325V12.5833" stroke="white" stroke-width="1.5" stroke-linecap="round" stroke-linejoin="round"/>
<path d="M14.7085 9.45825H20.9585" stroke="white" stroke-width="1.5" stroke-linecap="round" stroke-linejoin="round"/>
<path d="M15.2292 19.8752H3.77091C2.33268 19.8752 1.16675 18.7093 1.16675 17.271C1.16675 13.0203 7.41675 13.1044 9.50008 13.1044C11.5834 13.1044 17.8334 13.0203 17.8334 17.271C17.8334 18.7093 16.6675 19.8752 15.2292 19.8752Z" stroke="white" stroke-width="1.5" stroke-linecap="round" stroke-linejoin="round"/>
<path d="M9.50016 9.45833C11.8013 9.45833 13.6668 7.59285 13.6668 5.29167C13.6668 2.99048 11.8013 1.125 9.50016 1.125C7.19898 1.125 5.3335 2.99048 5.3335 5.29167C5.3335 7.59285 7.19898 9.45833 9.50016 9.45833Z" stroke="white" stroke-width="1.5" stroke-linecap="round" stroke-linejoin="round"/>
</svg>
