<svg width="25" height="26" viewBox="0 0 25 26" fill="none" xmlns="http://www.w3.org/2000/svg">
<path d="M13.5416 5.70841C13.5416 5.13312 13.0752 4.66675 12.4999 4.66675C11.9246 4.66675 11.4583 5.13312 11.4583 5.70841C11.4583 6.28371 11.9246 6.75008 12.4999 6.75008C13.0752 6.75008 13.5416 6.28371 13.5416 5.70841Z" fill="#2E244D" stroke="#2E244D" stroke-width="1.5" stroke-linecap="round" stroke-linejoin="round"/>
<path d="M13.5416 13.0002C13.5416 12.4249 13.0752 11.9585 12.4999 11.9585C11.9246 11.9585 11.4583 12.4249 11.4583 13.0002C11.4583 13.5755 11.9246 14.0418 12.4999 14.0418C13.0752 14.0418 13.5416 13.5755 13.5416 13.0002Z" fill="#2E244D" stroke="#2E244D" stroke-width="1.5" stroke-linecap="round" stroke-linejoin="round"/>
<path d="M13.5416 20.2917C13.5416 19.7164 13.0752 19.25 12.4999 19.25C11.9246 19.25 11.4583 19.7164 11.4583 20.2917C11.4583 20.867 11.9246 21.3333 12.4999 21.3333C13.0752 21.3333 13.5416 20.867 13.5416 20.2917Z" fill="#2E244D" stroke="#2E244D" stroke-width="1.5" stroke-linecap="round" stroke-linejoin="round"/>
</svg>
