<svg width="25" height="25" viewBox="0 0 25 25" fill="none" xmlns="http://www.w3.org/2000/svg">
<path d="M6.77077 7.29167C8.29301 5.76943 9.99321 4.60312 11.1432 3.89675C11.9813 3.38193 13.0185 3.38193 13.8566 3.89675C15.0066 4.60312 16.7069 5.76943 18.2291 7.29167C21.5295 10.5921 21.3541 12.5 21.3541 15.625C21.3541 17.0935 21.239 18.3321 21.1172 19.2325C20.9888 20.1798 20.1626 20.8333 19.2066 20.8333H17.7083C16.5577 20.8333 15.625 19.9006 15.625 18.75V16.6667C15.625 15.8378 15.2957 15.043 14.7097 14.457C14.1236 13.8709 13.3287 13.5417 12.5 13.5417C11.6711 13.5417 10.8763 13.8709 10.2902 14.457C9.70418 15.043 9.37494 15.8378 9.37494 16.6667V18.75C9.37494 19.9006 8.4422 20.8333 7.29161 20.8333H5.79323C4.83725 20.8333 4.01103 20.1798 3.88274 19.2324C3.76081 18.3321 3.64578 17.0935 3.64578 15.625C3.64578 12.5 3.47037 10.5921 6.77077 7.29167Z" stroke="#2E244D" stroke-width="1.5" stroke-linecap="round" stroke-linejoin="round"/>
</svg>
