<svg width="188" height="188" viewBox="0 0 188 188" fill="none" xmlns="http://www.w3.org/2000/svg">
<path d="M94 164.5C132.936 164.5 164.5 132.936 164.5 94C164.5 55.0639 132.936 23.5 94 23.5C55.0639 23.5 23.5 55.0639 23.5 94C23.5 132.936 55.0639 164.5 94 164.5Z" stroke="#4792CE" stroke-width="6.72596" stroke-linecap="round" stroke-linejoin="round"/>
<path d="M141 146.501C141 122.753 113.584 117.5 94.0002 117.5C74.4169 117.5 47.0002 122.753 47.0002 146.501" stroke="#4792CE" stroke-width="6.72596" stroke-linecap="round" stroke-linejoin="round"/>
<path d="M94 101C106.979 101 117.5 90.4791 117.5 77.5C117.5 64.5213 106.979 54 94 54C81.0209 54 70.5 64.5213 70.5 77.5C70.5 90.4791 81.0209 101 94 101Z" stroke="#4792CE" stroke-width="6.72596" stroke-linecap="round" stroke-linejoin="round"/>
</svg>
