<svg width="25" height="25" viewBox="0 0 25 25" fill="none" xmlns="http://www.w3.org/2000/svg">
<path d="M21.3542 21.875C22.7924 21.875 23.9584 20.7091 23.9584 19.2708C23.9584 16.8465 21.9252 15.8321 19.7917 15.408" stroke="#2E244D" stroke-width="1.5" stroke-linecap="round" stroke-linejoin="round"/>
<path d="M15.625 11.4583C17.9261 11.4583 19.7917 9.59285 19.7917 7.29167C19.7917 4.99048 17.9261 3.125 15.625 3.125" stroke="#2E244D" stroke-width="1.5" stroke-linecap="round" stroke-linejoin="round"/>
<path d="M15.1042 21.8751H3.64585C2.20761 21.8751 1.04169 20.7092 1.04169 19.2709C1.04169 15.0202 7.29169 15.1043 9.37502 15.1043C11.4584 15.1043 17.7084 15.0202 17.7084 19.2709C17.7084 20.7092 16.5424 21.8751 15.1042 21.8751Z" stroke="#2E244D" stroke-width="1.5" stroke-linecap="round" stroke-linejoin="round"/>
<path d="M9.37504 11.4583C11.6762 11.4583 13.5417 9.59285 13.5417 7.29167C13.5417 4.99048 11.6762 3.125 9.37504 3.125C7.07385 3.125 5.20837 4.99048 5.20837 7.29167C5.20837 9.59285 7.07385 11.4583 9.37504 11.4583Z" stroke="#2E244D" stroke-width="1.5" stroke-linecap="round" stroke-linejoin="round"/>
</svg>
