<svg width="135" height="49" viewBox="0 0 135 49" fill="none" xmlns="http://www.w3.org/2000/svg">
<rect width="135" height="49" rx="15" fill="#7C59E9"/>
<path d="M38.8334 26.5833V30.2291C38.8334 33.4142 34.6667 33.3541 30.5001 33.3541C26.3334 33.3541 22.1667 33.4142 22.1667 30.2291V26.5833" stroke="white" stroke-width="1.5" stroke-linecap="round" stroke-linejoin="round"/>
<path d="M30.5 27.625V15.125" stroke="white" stroke-width="1.5" stroke-linecap="round" stroke-linejoin="round"/>
<path d="M26.3335 23.4583L30.5002 27.6249L34.6668 23.4583" stroke="white" stroke-width="1.5" stroke-linecap="round" stroke-linejoin="round"/>
<path d="M52.744 30.5V19.3H54.328V27.94L60.952 19.3H62.424V30.5H60.856V21.876L54.216 30.5H52.744ZM65.6599 30.5V22.02H67.2439L70.8919 28.292H70.2519L73.9959 22.02H75.4359V30.5H74.0439V23.748L74.2999 23.892L70.8759 29.54H70.2039L66.7639 23.78L67.0679 23.716V30.5H65.6599ZM78.4255 30.5V22.02H86.2815V30.5H84.7455V22.98L85.1135 23.364H79.5935L79.9615 22.98V30.5H78.4255ZM92.8856 30.596C92.0323 30.596 91.275 30.4093 90.6136 30.036C89.9523 29.6627 89.4296 29.1507 89.0456 28.5C88.6616 27.8387 88.4696 27.092 88.4696 26.26C88.4696 25.4173 88.6616 24.6707 89.0456 24.02C89.4296 23.3693 89.9523 22.8627 90.6136 22.5C91.275 22.1267 92.0323 21.94 92.8856 21.94C93.7283 21.94 94.4803 22.1267 95.1416 22.5C95.8136 22.8627 96.3363 23.3693 96.7096 24.02C97.0936 24.66 97.2856 25.4067 97.2856 26.26C97.2856 27.1027 97.0936 27.8493 96.7096 28.5C96.3363 29.1507 95.8136 29.6627 95.1416 30.036C94.4803 30.4093 93.7283 30.596 92.8856 30.596ZM92.8856 29.252C93.4296 29.252 93.915 29.1293 94.3416 28.884C94.779 28.6387 95.1203 28.292 95.3656 27.844C95.611 27.3853 95.7336 26.8573 95.7336 26.26C95.7336 25.652 95.611 25.1293 95.3656 24.692C95.1203 24.244 94.779 23.8973 94.3416 23.652C93.915 23.4067 93.4296 23.284 92.8856 23.284C92.3416 23.284 91.8563 23.4067 91.4296 23.652C91.003 23.8973 90.6616 24.244 90.4056 24.692C90.1496 25.1293 90.0216 25.652 90.0216 26.26C90.0216 26.8573 90.1496 27.3853 90.4056 27.844C90.6616 28.292 91.003 28.6387 91.4296 28.884C91.8563 29.1293 92.3416 29.252 92.8856 29.252ZM104 30.596C103.296 30.596 102.65 30.436 102.064 30.116C101.488 29.7853 101.024 29.3 100.672 28.66C100.33 28.02 100.16 27.22 100.16 26.26C100.16 25.3 100.325 24.5 100.656 23.86C100.997 23.22 101.456 22.74 102.032 22.42C102.618 22.1 103.274 21.94 104 21.94C104.832 21.94 105.568 22.1213 106.208 22.484C106.848 22.8467 107.354 23.3533 107.728 24.004C108.101 24.644 108.288 25.396 108.288 26.26C108.288 27.124 108.101 27.8813 107.728 28.532C107.354 29.1827 106.848 29.6893 106.208 30.052C105.568 30.4147 104.832 30.596 104 30.596ZM99.5036 33.604V22.02H100.976V24.308L100.88 26.276L101.04 28.244V33.604H99.5036ZM103.872 29.252C104.416 29.252 104.901 29.1293 105.328 28.884C105.765 28.6387 106.106 28.292 106.352 27.844C106.608 27.3853 106.736 26.8573 106.736 26.26C106.736 25.652 106.608 25.1293 106.352 24.692C106.106 24.244 105.765 23.8973 105.328 23.652C104.901 23.4067 104.416 23.284 103.872 23.284C103.338 23.284 102.853 23.4067 102.416 23.652C101.989 23.8973 101.648 24.244 101.392 24.692C101.146 25.1293 101.024 25.652 101.024 26.26C101.024 26.8573 101.146 27.3853 101.392 27.844C101.648 28.292 101.989 28.6387 102.416 28.884C102.853 29.1293 103.338 29.252 103.872 29.252ZM111.887 30.5V22.964L112.271 23.364H108.783V22.02H116.527V23.364H113.055L113.423 22.964V30.5H111.887Z" fill="white"/>
</svg>
