<svg width="139" height="49" viewBox="0 0 139 49" fill="none" xmlns="http://www.w3.org/2000/svg">
<rect x="0.75" y="0.75" width="137.5" height="47.5" rx="14.25" stroke="#7C59E9" stroke-width="1.5"/>
<path d="M38.8334 26.5833V30.2291C38.8334 33.4142 34.6667 33.3541 30.5001 33.3541C26.3334 33.3541 22.1667 33.4142 22.1667 30.2291V26.5833" stroke="#7C59E9" stroke-width="1.5" stroke-linecap="round" stroke-linejoin="round"/>
<path d="M30.5 15.125V27.625" stroke="#7C59E9" stroke-width="1.5" stroke-linecap="round" stroke-linejoin="round"/>
<path d="M26.3335 19.2917L30.5002 15.1251L34.6668 19.2917" stroke="#7C59E9" stroke-width="1.5" stroke-linecap="round" stroke-linejoin="round"/>
<path d="M54.392 25.46V24.148H60.392V25.46H54.392ZM55.832 19.172C56.6427 19.172 57.3893 19.316 58.072 19.604C58.7547 19.8813 59.3467 20.2813 59.848 20.804C60.36 21.316 60.7547 21.9187 61.032 22.612C61.32 23.3053 61.464 24.068 61.464 24.9C61.464 25.732 61.32 26.4947 61.032 27.188C60.7547 27.8813 60.36 28.4893 59.848 29.012C59.3467 29.524 58.7547 29.924 58.072 30.212C57.3893 30.4893 56.6427 30.628 55.832 30.628C54.936 30.628 54.1093 30.4787 53.352 30.18C52.6053 29.8813 51.976 29.444 51.464 28.868L52.472 27.86C52.92 28.3187 53.416 28.6547 53.96 28.868C54.5147 29.0813 55.112 29.188 55.752 29.188C56.3387 29.188 56.8827 29.0813 57.384 28.868C57.8853 28.6547 58.3173 28.3613 58.68 27.988C59.0533 27.604 59.3413 27.1507 59.544 26.628C59.7467 26.0947 59.848 25.5187 59.848 24.9C59.848 24.2813 59.7467 23.7107 59.544 23.188C59.3413 22.6547 59.0533 22.2013 58.68 21.828C58.3173 21.444 57.8853 21.1453 57.384 20.932C56.8827 20.7187 56.3387 20.612 55.752 20.612C55.112 20.612 54.5147 20.7187 53.96 20.932C53.416 21.1453 52.92 21.4813 52.472 21.94L51.464 20.932C51.976 20.356 52.6053 19.9187 53.352 19.62C54.1093 19.3213 54.936 19.172 55.832 19.172ZM69.9445 30.5L66.6645 26.372L67.9285 25.604L71.7525 30.5H69.9445ZM63.8005 30.5V22.02H65.3365V30.5H63.8005ZM64.8725 26.916V25.604H67.6725V26.916H64.8725ZM68.0565 26.436L66.6325 26.244L69.8805 22.02H71.5285L68.0565 26.436ZM76.7778 30.596C75.9138 30.596 75.1404 30.4093 74.4578 30.036C73.7858 29.6627 73.2578 29.1507 72.8738 28.5C72.4898 27.8493 72.2978 27.1027 72.2978 26.26C72.2978 25.4173 72.4898 24.6707 72.8738 24.02C73.2578 23.3693 73.7858 22.8627 74.4578 22.5C75.1404 22.1267 75.9138 21.94 76.7778 21.94C77.5458 21.94 78.2284 22.0947 78.8258 22.404C79.4338 22.7027 79.9031 23.1507 80.2338 23.748L79.0658 24.5C78.7884 24.084 78.4471 23.78 78.0418 23.588C77.6471 23.3853 77.2204 23.284 76.7618 23.284C76.2071 23.284 75.7111 23.4067 75.2738 23.652C74.8364 23.8973 74.4898 24.244 74.2338 24.692C73.9778 25.1293 73.8498 25.652 73.8498 26.26C73.8498 26.868 73.9778 27.396 74.2338 27.844C74.4898 28.292 74.8364 28.6387 75.2738 28.884C75.7111 29.1293 76.2071 29.252 76.7618 29.252C77.2204 29.252 77.6471 29.156 78.0418 28.964C78.4471 28.7613 78.7884 28.452 79.0658 28.036L80.2338 28.772C79.9031 29.3587 79.4338 29.812 78.8258 30.132C78.2284 30.4413 77.5458 30.596 76.7778 30.596ZM82.2224 30.5V22.02H90.0784V30.5H88.5424V22.98L88.9104 23.364H83.3904L83.7584 22.98V30.5H82.2224ZM96.6825 30.596C95.8292 30.596 95.0718 30.4093 94.4105 30.036C93.7492 29.6627 93.2265 29.1507 92.8425 28.5C92.4585 27.8387 92.2665 27.092 92.2665 26.26C92.2665 25.4173 92.4585 24.6707 92.8425 24.02C93.2265 23.3693 93.7492 22.8627 94.4105 22.5C95.0718 22.1267 95.8292 21.94 96.6825 21.94C97.5252 21.94 98.2772 22.1267 98.9385 22.5C99.6105 22.8627 100.133 23.3693 100.507 24.02C100.891 24.66 101.083 25.4067 101.083 26.26C101.083 27.1027 100.891 27.8493 100.507 28.5C100.133 29.1507 99.6105 29.6627 98.9385 30.036C98.2772 30.4093 97.5252 30.596 96.6825 30.596ZM96.6825 29.252C97.2265 29.252 97.7118 29.1293 98.1385 28.884C98.5758 28.6387 98.9172 28.292 99.1625 27.844C99.4078 27.3853 99.5305 26.8573 99.5305 26.26C99.5305 25.652 99.4078 25.1293 99.1625 24.692C98.9172 24.244 98.5758 23.8973 98.1385 23.652C97.7118 23.4067 97.2265 23.284 96.6825 23.284C96.1385 23.284 95.6532 23.4067 95.2265 23.652C94.7998 23.8973 94.4585 24.244 94.2025 24.692C93.9465 25.1293 93.8185 25.652 93.8185 26.26C93.8185 26.8573 93.9465 27.3853 94.2025 27.844C94.4585 28.292 94.7998 28.6387 95.2265 28.884C95.6532 29.1293 96.1385 29.252 96.6825 29.252ZM107.797 30.596C107.093 30.596 106.447 30.436 105.861 30.116C105.285 29.7853 104.821 29.3 104.469 28.66C104.127 28.02 103.957 27.22 103.957 26.26C103.957 25.3 104.122 24.5 104.453 23.86C104.794 23.22 105.253 22.74 105.829 22.42C106.415 22.1 107.071 21.94 107.797 21.94C108.629 21.94 109.365 22.1213 110.005 22.484C110.645 22.8467 111.151 23.3533 111.525 24.004C111.898 24.644 112.085 25.396 112.085 26.26C112.085 27.124 111.898 27.8813 111.525 28.532C111.151 29.1827 110.645 29.6893 110.005 30.052C109.365 30.4147 108.629 30.596 107.797 30.596ZM103.301 33.604V22.02H104.773V24.308L104.677 26.276L104.837 28.244V33.604H103.301ZM107.669 29.252C108.213 29.252 108.698 29.1293 109.125 28.884C109.562 28.6387 109.903 28.292 110.149 27.844C110.405 27.3853 110.533 26.8573 110.533 26.26C110.533 25.652 110.405 25.1293 110.149 24.692C109.903 24.244 109.562 23.8973 109.125 23.652C108.698 23.4067 108.213 23.284 107.669 23.284C107.135 23.284 106.65 23.4067 106.213 23.652C105.786 23.8973 105.445 24.244 105.189 24.692C104.943 25.1293 104.821 25.652 104.821 26.26C104.821 26.8573 104.943 27.3853 105.189 27.844C105.445 28.292 105.786 28.6387 106.213 28.884C106.65 29.1293 107.135 29.252 107.669 29.252ZM115.684 30.5V22.964L116.068 23.364H112.58V22.02H120.324V23.364H116.852L117.22 22.964V30.5H115.684Z" fill="#7C59E9"/>
</svg>
